<svg xmlns="http://www.w3.org/2000/svg" width="960" height="1308" viewBox="0 0 960 1308">
  <defs>
    <style>
      @import url('https://cdnjs.cloudflare.com/ajax/libs/font-awesome/6.5.1/css/all.min.css');
    </style>
  </defs>
<text x="0" y="16" font-family="sans-serif" font-size="14" font-weight="700" fill="#151515">Value</text>
<text x="0" y="32" font-family="sans-serif" font-size="11" font-style="italic" fill="#6a6e73">Addresses why the project exists, for whom, and how it creates and confirms ben…</text>
<g transform="translate(0, 40)">
<g>
  <path d="M 0 0 L 168 0 L 180 24 L 168 48 L 0 48 Z" fill="#ffffff" stroke="#d2d2d2" stroke-width="1" stroke-dasharray="4"/>
  <text x="12" y="28" font-family="sans-serif" font-size="11" font-weight="600" fill="#151515">Explore Possibiliti…</text>
  <foreignObject x="0" y="0" width="168" height="48">
    <div xmlns="http://www.w3.org/1999/xhtml" style="display:flex;align-items:center;gap:8px;padding:12px;height:100%;box-sizing:border-box;background:#fff;border-radius:4px">
      <i class="fa-solid fa-compass" style="font-size:14px"></i>
      <span style="font-weight:600;font-size:11px;font-family:sans-serif;color:#151515">Explore Possibiliti…</span>
    </div>
  </foreignObject>
</g>
</g>
<g transform="translate(204, 40)">
<g>
  <path d="M 0 0 L 168 0 L 180 24 L 168 48 L 0 48 Z" fill="#ffffff" stroke="#d2d2d2" stroke-width="1" stroke-dasharray="4"/>
  <text x="12" y="28" font-family="sans-serif" font-size="11" font-weight="600" fill="#151515">Assess and Monitor …</text>
  <foreignObject x="0" y="0" width="168" height="48">
    <div xmlns="http://www.w3.org/1999/xhtml" style="display:flex;align-items:center;gap:8px;padding:12px;height:100%;box-sizing:border-box;background:#fff;border-radius:4px">
      <i class="fa-solid fa-chart-line" style="font-size:14px"></i>
      <span style="font-weight:600;font-size:11px;font-family:sans-serif;color:#151515">Assess and Monitor …</span>
    </div>
  </foreignObject>
</g>
</g>
<g transform="translate(408, 40)">
<g>
  <path d="M 0 0 L 168 0 L 180 24 L 168 48 L 0 48 Z" fill="#ffffff" stroke="#d2d2d2" stroke-width="1" stroke-dasharray="4"/>
  <text x="12" y="28" font-family="sans-serif" font-size="11" font-weight="600" fill="#151515">Understand Stakehol…</text>
  <foreignObject x="0" y="0" width="168" height="48">
    <div xmlns="http://www.w3.org/1999/xhtml" style="display:flex;align-items:center;gap:8px;padding:12px;height:100%;box-sizing:border-box;background:#fff;border-radius:4px">
      <i class="fa-solid fa-comments" style="font-size:14px"></i>
      <span style="font-weight:600;font-size:11px;font-family:sans-serif;color:#151515">Understand Stakehol…</span>
    </div>
  </foreignObject>
</g>
</g>
<g transform="translate(612, 40)">
<g>
  <path d="M 0 0 L 168 0 L 180 24 L 168 48 L 0 48 Z" fill="#ffffff" stroke="#d2d2d2" stroke-width="1" stroke-dasharray="4"/>
  <text x="12" y="28" font-family="sans-serif" font-size="11" font-weight="600" fill="#151515">Ensure Stakeholder …</text>
  <foreignObject x="0" y="0" width="168" height="48">
    <div xmlns="http://www.w3.org/1999/xhtml" style="display:flex;align-items:center;gap:8px;padding:12px;height:100%;box-sizing:border-box;background:#fff;border-radius:4px">
      <i class="fa-solid fa-handshake" style="font-size:14px"></i>
      <span style="font-weight:600;font-size:11px;font-family:sans-serif;color:#151515">Ensure Stakeholder …</span>
    </div>
  </foreignObject>
</g>
<line x1="21" y1="48" x2="21" y2="144" stroke="rgba(102,102,102,0.8)" stroke-width="3"/>
<line x1="21" y1="84" x2="42" y2="84" stroke="rgba(102,102,102,0.8)" stroke-width="3"/>
<g>
  <path d="M 0 0 L 168 0 L 180 24 L 168 48 L 0 48 Z" transform="translate(42,60)" fill="#ffffff" stroke="#d2d2d2" stroke-width="1"/>
  <text x="54" y="88" font-family="sans-serif" font-size="11" font-weight="600" fill="#151515">Conduct Sprint Revi…</text>
</g>
<line x1="21" y1="144" x2="42" y2="144" stroke="rgba(102,102,102,0.8)" stroke-width="3"/>
<g>
  <path d="M 0 0 L 168 0 L 180 24 L 168 48 L 0 48 Z" transform="translate(42,120)" fill="#ffffff" stroke="#d2d2d2" stroke-width="1"/>
  <text x="54" y="148" font-family="sans-serif" font-size="11" font-weight="600" fill="#151515">Manage Stakeholder …</text>
</g>
</g>
<text x="0" y="280" font-family="sans-serif" font-size="14" font-weight="700" fill="#151515">Solution</text>
<text x="0" y="296" font-family="sans-serif" font-size="11" font-style="italic" fill="#6a6e73">Addresses what the project is trying to achieve and produce -- encompassing goa…</text>
<g transform="translate(0, 304)">
<g>
  <path d="M 0 0 L 168 0 L 180 24 L 168 48 L 0 48 Z" fill="#ffffff" stroke="#d2d2d2" stroke-width="1" stroke-dasharray="4"/>
  <text x="12" y="28" font-family="sans-serif" font-size="11" font-weight="600" fill="#151515">Shape the Objectives</text>
  <foreignObject x="0" y="0" width="168" height="48">
    <div xmlns="http://www.w3.org/1999/xhtml" style="display:flex;align-items:center;gap:8px;padding:12px;height:100%;box-sizing:border-box;background:#fff;border-radius:4px">
      <i class="fa-solid fa-crosshairs" style="font-size:14px"></i>
      <span style="font-weight:600;font-size:11px;font-family:sans-serif;color:#151515">Shape the Objectives</span>
    </div>
  </foreignObject>
</g>
<line x1="21" y1="48" x2="21" y2="144" stroke="rgba(102,102,102,0.8)" stroke-width="3"/>
<line x1="21" y1="84" x2="42" y2="84" stroke="rgba(102,102,102,0.8)" stroke-width="3"/>
<g>
  <path d="M 0 0 L 168 0 L 180 24 L 168 48 L 0 48 Z" transform="translate(42,60)" fill="#ffffff" stroke="#d2d2d2" stroke-width="1"/>
  <text x="54" y="88" font-family="sans-serif" font-size="11" font-weight="600" fill="#151515">Define Product Goal</text>
</g>
<line x1="21" y1="144" x2="42" y2="144" stroke="rgba(102,102,102,0.8)" stroke-width="3"/>
<g>
  <path d="M 0 0 L 168 0 L 180 24 L 168 48 L 0 48 Z" transform="translate(42,120)" fill="#ffffff" stroke="#d2d2d2" stroke-width="1"/>
  <text x="54" y="148" font-family="sans-serif" font-size="11" font-weight="600" fill="#151515">Order Product Backl…</text>
</g>
</g>
<g transform="translate(246, 304)">
<g>
  <path d="M 0 0 L 168 0 L 180 24 L 168 48 L 0 48 Z" fill="#ffffff" stroke="#d2d2d2" stroke-width="1" stroke-dasharray="4"/>
  <text x="12" y="28" font-family="sans-serif" font-size="11" font-weight="600" fill="#151515">Shape the Deliverab…</text>
  <foreignObject x="0" y="0" width="168" height="48">
    <div xmlns="http://www.w3.org/1999/xhtml" style="display:flex;align-items:center;gap:8px;padding:12px;height:100%;box-sizing:border-box;background:#fff;border-radius:4px">
      <i class="fa-solid fa-drafting-compass" style="font-size:14px"></i>
      <span style="font-weight:600;font-size:11px;font-family:sans-serif;color:#151515">Shape the Deliverab…</span>
    </div>
  </foreignObject>
</g>
<line x1="21" y1="48" x2="21" y2="144" stroke="rgba(102,102,102,0.8)" stroke-width="3"/>
<line x1="21" y1="84" x2="42" y2="84" stroke="rgba(102,102,102,0.8)" stroke-width="3"/>
<g>
  <path d="M 0 0 L 168 0 L 180 24 L 168 48 L 0 48 Z" transform="translate(42,60)" fill="#ffffff" stroke="#d2d2d2" stroke-width="1"/>
  <text x="54" y="88" font-family="sans-serif" font-size="11" font-weight="600" fill="#151515">Shape Product Vision</text>
</g>
<line x1="21" y1="144" x2="42" y2="144" stroke="rgba(102,102,102,0.8)" stroke-width="3"/>
<g>
  <path d="M 0 0 L 168 0 L 180 24 L 168 48 L 0 48 Z" transform="translate(42,120)" fill="#ffffff" stroke="#d2d2d2" stroke-width="1"/>
  <text x="54" y="148" font-family="sans-serif" font-size="11" font-weight="600" fill="#151515">Conduct Release Pla…</text>
</g>
</g>
<g transform="translate(492, 304)">
<g>
  <path d="M 0 0 L 168 0 L 180 24 L 168 48 L 0 48 Z" fill="#ffffff" stroke="#d2d2d2" stroke-width="1" stroke-dasharray="4"/>
  <text x="12" y="28" font-family="sans-serif" font-size="11" font-weight="600" fill="#151515">Produce the Deliver…</text>
  <foreignObject x="0" y="0" width="168" height="48">
    <div xmlns="http://www.w3.org/1999/xhtml" style="display:flex;align-items:center;gap:8px;padding:12px;height:100%;box-sizing:border-box;background:#fff;border-radius:4px">
      <i class="fa-solid fa-hammer" style="font-size:14px"></i>
      <span style="font-weight:600;font-size:11px;font-family:sans-serif;color:#151515">Produce the Deliver…</span>
    </div>
  </foreignObject>
</g>
<line x1="21" y1="48" x2="21" y2="144" stroke="rgba(102,102,102,0.8)" stroke-width="3"/>
<line x1="21" y1="84" x2="42" y2="84" stroke="rgba(102,102,102,0.8)" stroke-width="3"/>
<g>
  <path d="M 0 0 L 168 0 L 180 24 L 168 48 L 0 48 Z" transform="translate(42,60)" fill="#ffffff" stroke="#d2d2d2" stroke-width="1"/>
  <text x="54" y="88" font-family="sans-serif" font-size="11" font-weight="600" fill="#151515">Perform Sprint Revi…</text>
</g>
<line x1="21" y1="144" x2="42" y2="144" stroke="rgba(102,102,102,0.8)" stroke-width="3"/>
<g>
  <path d="M 0 0 L 168 0 L 180 24 L 168 48 L 0 48 Z" transform="translate(42,120)" fill="#ffffff" stroke="#d2d2d2" stroke-width="1"/>
  <text x="54" y="148" font-family="sans-serif" font-size="11" font-weight="600" fill="#151515">Create Increment</text>
</g>
</g>
<text x="0" y="544" font-family="sans-serif" font-size="14" font-weight="700" fill="#151515">Endeavor</text>
<text x="0" y="560" font-family="sans-serif" font-size="11" font-style="italic" fill="#6a6e73">Addresses how the project is organized and executed -- encompassing team format…</text>
<g transform="translate(0, 568)">
<g>
  <path d="M 0 0 L 168 0 L 180 24 L 168 48 L 0 48 Z" fill="#ffffff" stroke="#d2d2d2" stroke-width="1" stroke-dasharray="4"/>
  <text x="12" y="28" font-family="sans-serif" font-size="11" font-weight="600" fill="#151515">Prepare To Do The W…</text>
  <foreignObject x="0" y="0" width="168" height="48">
    <div xmlns="http://www.w3.org/1999/xhtml" style="display:flex;align-items:center;gap:8px;padding:12px;height:100%;box-sizing:border-box;background:#fff;border-radius:4px">
      <i class="fa-solid fa-clipboard-list" style="font-size:14px"></i>
      <span style="font-weight:600;font-size:11px;font-family:sans-serif;color:#151515">Prepare To Do The W…</span>
    </div>
  </foreignObject>
</g>
<line x1="21" y1="48" x2="21" y2="264" stroke="rgba(102,102,102,0.8)" stroke-width="3"/>
<line x1="21" y1="84" x2="42" y2="84" stroke="rgba(102,102,102,0.8)" stroke-width="3"/>
<g>
  <path d="M 0 0 L 168 0 L 180 24 L 168 48 L 0 48 Z" transform="translate(42,60)" fill="#ffffff" stroke="#d2d2d2" stroke-width="1"/>
  <text x="54" y="88" font-family="sans-serif" font-size="11" font-weight="600" fill="#151515">Conduct Sprint Plan…</text>
</g>
<line x1="21" y1="144" x2="42" y2="144" stroke="rgba(102,102,102,0.8)" stroke-width="3"/>
<g>
  <path d="M 0 0 L 168 0 L 180 24 L 168 48 L 0 48 Z" transform="translate(42,120)" fill="#ffffff" stroke="#d2d2d2" stroke-width="1"/>
  <text x="54" y="148" font-family="sans-serif" font-size="11" font-weight="600" fill="#151515">Manage Backlog Refi…</text>
</g>
<line x1="21" y1="204" x2="42" y2="204" stroke="rgba(102,102,102,0.8)" stroke-width="3"/>
<g>
  <path d="M 0 0 L 168 0 L 180 24 L 168 48 L 0 48 Z" transform="translate(42,180)" fill="#ffffff" stroke="#d2d2d2" stroke-width="1"/>
  <text x="54" y="208" font-family="sans-serif" font-size="11" font-weight="600" fill="#151515">Refine Product Back…</text>
</g>
<line x1="21" y1="264" x2="42" y2="264" stroke="rgba(102,102,102,0.8)" stroke-width="3"/>
<g>
  <path d="M 0 0 L 168 0 L 180 24 L 168 48 L 0 48 Z" transform="translate(42,240)" fill="#ffffff" stroke="#d2d2d2" stroke-width="1"/>
  <text x="54" y="268" font-family="sans-serif" font-size="11" font-weight="600" fill="#151515">Formulate Sprint Go…</text>
</g>
</g>
<g transform="translate(246, 568)">
<g>
  <path d="M 0 0 L 168 0 L 180 24 L 168 48 L 0 48 Z" fill="#ffffff" stroke="#d2d2d2" stroke-width="1" stroke-dasharray="4"/>
  <text x="12" y="28" font-family="sans-serif" font-size="11" font-weight="600" fill="#151515">Manage Work Executi…</text>
  <foreignObject x="0" y="0" width="168" height="48">
    <div xmlns="http://www.w3.org/1999/xhtml" style="display:flex;align-items:center;gap:8px;padding:12px;height:100%;box-sizing:border-box;background:#fff;border-radius:4px">
      <i class="fa-solid fa-gauge-high" style="font-size:14px"></i>
      <span style="font-weight:600;font-size:11px;font-family:sans-serif;color:#151515">Manage Work Executi…</span>
    </div>
  </foreignObject>
</g>
<line x1="21" y1="48" x2="21" y2="444" stroke="rgba(102,102,102,0.8)" stroke-width="3"/>
<line x1="21" y1="84" x2="42" y2="84" stroke="rgba(102,102,102,0.8)" stroke-width="3"/>
<g>
  <path d="M 0 0 L 168 0 L 180 24 L 168 48 L 0 48 Z" transform="translate(42,60)" fill="#ffffff" stroke="#d2d2d2" stroke-width="1"/>
  <text x="54" y="88" font-family="sans-serif" font-size="11" font-weight="600" fill="#151515">Facilitate Daily St…</text>
</g>
<line x1="21" y1="144" x2="42" y2="144" stroke="rgba(102,102,102,0.8)" stroke-width="3"/>
<g>
  <path d="M 0 0 L 168 0 L 180 24 L 168 48 L 0 48 Z" transform="translate(42,120)" fill="#ffffff" stroke="#d2d2d2" stroke-width="1"/>
  <text x="54" y="148" font-family="sans-serif" font-size="11" font-weight="600" fill="#151515">Manage Work In Prog…</text>
</g>
<line x1="21" y1="204" x2="42" y2="204" stroke="rgba(102,102,102,0.8)" stroke-width="3"/>
<g>
  <path d="M 0 0 L 168 0 L 180 24 L 168 48 L 0 48 Z" transform="translate(42,180)" fill="#ffffff" stroke="#d2d2d2" stroke-width="1"/>
  <text x="54" y="208" font-family="sans-serif" font-size="11" font-weight="600" fill="#151515">Visualize Workflow</text>
</g>
<line x1="21" y1="264" x2="42" y2="264" stroke="rgba(102,102,102,0.8)" stroke-width="3"/>
<g>
  <path d="M 0 0 L 168 0 L 180 24 L 168 48 L 0 48 Z" transform="translate(42,240)" fill="#ffffff" stroke="#d2d2d2" stroke-width="1"/>
  <text x="54" y="268" font-family="sans-serif" font-size="11" font-weight="600" fill="#151515">Monitor Delivery Pr…</text>
</g>
<line x1="21" y1="324" x2="42" y2="324" stroke="rgba(102,102,102,0.8)" stroke-width="3"/>
<g>
  <path d="M 0 0 L 168 0 L 180 24 L 168 48 L 0 48 Z" transform="translate(42,300)" fill="#ffffff" stroke="#d2d2d2" stroke-width="1"/>
  <text x="54" y="328" font-family="sans-serif" font-size="11" font-weight="600" fill="#151515">Conduct Daily Scrum</text>
</g>
<line x1="21" y1="384" x2="42" y2="384" stroke="rgba(102,102,102,0.8)" stroke-width="3"/>
<g>
  <path d="M 0 0 L 168 0 L 180 24 L 168 48 L 0 48 Z" transform="translate(42,360)" fill="#ffffff" stroke="#d2d2d2" stroke-width="1"/>
  <text x="54" y="388" font-family="sans-serif" font-size="11" font-weight="600" fill="#151515">Adapt Sprint Backlog</text>
</g>
<line x1="21" y1="444" x2="42" y2="444" stroke="rgba(102,102,102,0.8)" stroke-width="3"/>
<g>
  <path d="M 0 0 L 168 0 L 180 24 L 168 48 L 0 48 Z" transform="translate(42,420)" fill="#ffffff" stroke="#d2d2d2" stroke-width="1"/>
  <text x="54" y="448" font-family="sans-serif" font-size="11" font-weight="600" fill="#151515">Cancel Sprint</text>
</g>
</g>
<g transform="translate(492, 568)">
<g>
  <path d="M 0 0 L 168 0 L 180 24 L 168 48 L 0 48 Z" fill="#ffffff" stroke="#d2d2d2" stroke-width="1" stroke-dasharray="4"/>
  <text x="12" y="28" font-family="sans-serif" font-size="11" font-weight="600" fill="#151515">Support the Team</text>
  <foreignObject x="0" y="0" width="168" height="48">
    <div xmlns="http://www.w3.org/1999/xhtml" style="display:flex;align-items:center;gap:8px;padding:12px;height:100%;box-sizing:border-box;background:#fff;border-radius:4px">
      <i class="fa-solid fa-people-group" style="font-size:14px"></i>
      <span style="font-weight:600;font-size:11px;font-family:sans-serif;color:#151515">Support the Team</span>
    </div>
  </foreignObject>
</g>
<line x1="21" y1="48" x2="21" y2="204" stroke="rgba(102,102,102,0.8)" stroke-width="3"/>
<line x1="21" y1="84" x2="42" y2="84" stroke="rgba(102,102,102,0.8)" stroke-width="3"/>
<g>
  <path d="M 0 0 L 168 0 L 180 24 L 168 48 L 0 48 Z" transform="translate(42,60)" fill="#ffffff" stroke="#d2d2d2" stroke-width="1"/>
  <text x="54" y="88" font-family="sans-serif" font-size="11" font-weight="600" fill="#151515">Build the Team</text>
</g>
<line x1="21" y1="144" x2="42" y2="144" stroke="rgba(102,102,102,0.8)" stroke-width="3"/>
<g>
  <path d="M 0 0 L 168 0 L 180 24 L 168 48 L 0 48 Z" transform="translate(42,120)" fill="#ffffff" stroke="#d2d2d2" stroke-width="1"/>
  <text x="54" y="148" font-family="sans-serif" font-size="11" font-weight="600" fill="#151515">Facilitate Team For…</text>
</g>
<line x1="21" y1="204" x2="42" y2="204" stroke="rgba(102,102,102,0.8)" stroke-width="3"/>
<g>
  <path d="M 0 0 L 168 0 L 180 24 L 168 48 L 0 48 Z" transform="translate(42,180)" fill="#ffffff" stroke="#d2d2d2" stroke-width="1"/>
  <text x="54" y="208" font-family="sans-serif" font-size="11" font-weight="600" fill="#151515">Serve the Scrum Team</text>
</g>
</g>
<g transform="translate(738, 568)">
<g>
  <path d="M 0 0 L 168 0 L 180 24 L 168 48 L 0 48 Z" fill="#ffffff" stroke="#d2d2d2" stroke-width="1" stroke-dasharray="4"/>
  <text x="12" y="28" font-family="sans-serif" font-size="11" font-weight="600" fill="#151515">Establish Way Of Wo…</text>
  <foreignObject x="0" y="0" width="168" height="48">
    <div xmlns="http://www.w3.org/1999/xhtml" style="display:flex;align-items:center;gap:8px;padding:12px;height:100%;box-sizing:border-box;background:#fff;border-radius:4px">
      <i class="fa-solid fa-screwdriver-wrench" style="font-size:14px"></i>
      <span style="font-weight:600;font-size:11px;font-family:sans-serif;color:#151515">Establish Way Of Wo…</span>
    </div>
  </foreignObject>
</g>
<line x1="21" y1="48" x2="21" y2="384" stroke="rgba(102,102,102,0.8)" stroke-width="3"/>
<line x1="21" y1="84" x2="42" y2="84" stroke="rgba(102,102,102,0.8)" stroke-width="3"/>
<g>
  <path d="M 0 0 L 168 0 L 180 24 L 168 48 L 0 48 Z" transform="translate(42,60)" fill="#ffffff" stroke="#d2d2d2" stroke-width="1"/>
  <text x="54" y="88" font-family="sans-serif" font-size="11" font-weight="600" fill="#151515">Conduct Retrospecti…</text>
</g>
<line x1="21" y1="144" x2="42" y2="144" stroke="rgba(102,102,102,0.8)" stroke-width="3"/>
<g>
  <path d="M 0 0 L 168 0 L 180 24 L 168 48 L 0 48 Z" transform="translate(42,120)" fill="#ffffff" stroke="#d2d2d2" stroke-width="1"/>
  <text x="54" y="148" font-family="sans-serif" font-size="11" font-weight="600" fill="#151515">Establish Working A…</text>
</g>
<line x1="21" y1="204" x2="42" y2="204" stroke="rgba(102,102,102,0.8)" stroke-width="3"/>
<g>
  <path d="M 0 0 L 168 0 L 180 24 L 168 48 L 0 48 Z" transform="translate(42,180)" fill="#ffffff" stroke="#d2d2d2" stroke-width="1"/>
  <text x="54" y="208" font-family="sans-serif" font-size="11" font-weight="600" fill="#151515">Define Definition o…</text>
</g>
<line x1="21" y1="264" x2="42" y2="264" stroke="rgba(102,102,102,0.8)" stroke-width="3"/>
<g>
  <path d="M 0 0 L 168 0 L 180 24 L 168 48 L 0 48 Z" transform="translate(42,240)" fill="#ffffff" stroke="#d2d2d2" stroke-width="1"/>
  <text x="54" y="268" font-family="sans-serif" font-size="11" font-weight="600" fill="#151515">Perform Continuous …</text>
</g>
<line x1="21" y1="324" x2="42" y2="324" stroke="rgba(102,102,102,0.8)" stroke-width="3"/>
<g>
  <path d="M 0 0 L 168 0 L 180 24 L 168 48 L 0 48 Z" transform="translate(42,300)" fill="#ffffff" stroke="#d2d2d2" stroke-width="1"/>
  <text x="54" y="328" font-family="sans-serif" font-size="11" font-weight="600" fill="#151515">Conduct Sprint Retr…</text>
</g>
<line x1="21" y1="384" x2="42" y2="384" stroke="rgba(102,102,102,0.8)" stroke-width="3"/>
<g>
  <path d="M 0 0 L 168 0 L 180 24 L 168 48 L 0 48 Z" transform="translate(42,360)" fill="#ffffff" stroke="#d2d2d2" stroke-width="1"/>
  <text x="54" y="388" font-family="sans-serif" font-size="11" font-weight="600" fill="#151515">Establish Definitio…</text>
</g>
</g>
<g transform="translate(0, 1084)">
<g>
  <path d="M 0 0 L 168 0 L 180 24 L 168 48 L 0 48 Z" fill="#ffffff" stroke="#d2d2d2" stroke-width="1" stroke-dasharray="4"/>
  <text x="12" y="28" font-family="sans-serif" font-size="11" font-weight="600" fill="#151515">Stop The Work</text>
  <foreignObject x="0" y="0" width="168" height="48">
    <div xmlns="http://www.w3.org/1999/xhtml" style="display:flex;align-items:center;gap:8px;padding:12px;height:100%;box-sizing:border-box;background:#fff;border-radius:4px">
      <i class="fa-solid fa-flag-checkered" style="font-size:14px"></i>
      <span style="font-weight:600;font-size:11px;font-family:sans-serif;color:#151515">Stop The Work</span>
    </div>
  </foreignObject>
</g>
<line x1="21" y1="48" x2="21" y2="144" stroke="rgba(102,102,102,0.8)" stroke-width="3"/>
<line x1="21" y1="84" x2="42" y2="84" stroke="rgba(102,102,102,0.8)" stroke-width="3"/>
<g>
  <path d="M 0 0 L 168 0 L 180 24 L 168 48 L 0 48 Z" transform="translate(42,60)" fill="#ffffff" stroke="#d2d2d2" stroke-width="1"/>
  <text x="54" y="88" font-family="sans-serif" font-size="11" font-weight="600" fill="#151515">Close Project Phase</text>
</g>
<line x1="21" y1="144" x2="42" y2="144" stroke="rgba(102,102,102,0.8)" stroke-width="3"/>
<g>
  <path d="M 0 0 L 168 0 L 180 24 L 168 48 L 0 48 Z" transform="translate(42,120)" fill="#ffffff" stroke="#d2d2d2" stroke-width="1"/>
  <text x="54" y="148" font-family="sans-serif" font-size="11" font-weight="600" fill="#151515">Facilitate Lessons …</text>
</g>
</g>
</svg>