<svg xmlns="http://www.w3.org/2000/svg" width="996" height="624" viewBox="0 0 996 624">
  <defs>
    <style>
      @import url('https://cdnjs.cloudflare.com/ajax/libs/font-awesome/6.5.1/css/all.min.css');
    </style>
  </defs>
<text x="0" y="16" font-family="sans-serif" font-size="14" font-weight="700" fill="#151515">Value</text>
<text x="0" y="32" font-family="sans-serif" font-size="11" font-style="italic" fill="#6a6e73">Addresses why the project exists, for whom, and how it creates and confirms ben…</text>
<g transform="translate(0, 40)">
<g>
  <rect x="0" y="0" width="180" height="48" rx="4" fill="#ffffff" stroke="#d2d2d2" stroke-width="1"/>
  <text x="12" y="28" font-family="sans-serif" font-size="11" font-weight="600" fill="#151515">Opportunity</text>
  <foreignObject x="0" y="0" width="180" height="48">
    <div xmlns="http://www.w3.org/1999/xhtml" style="display:flex;align-items:center;gap:8px;padding:12px;height:100%;box-sizing:border-box;background:#fff;border-radius:4px">
      <i class="fa-solid fa-lightbulb" style="font-size:14px"></i>
      <span style="font-weight:600;font-size:11px;font-family:sans-serif;color:#151515">Opportunity</span>
    </div>
  </foreignObject>
</g>
</g>
<g transform="translate(204, 40)">
<g>
  <rect x="0" y="0" width="180" height="48" rx="4" fill="#ffffff" stroke="#d2d2d2" stroke-width="1"/>
  <text x="12" y="28" font-family="sans-serif" font-size="11" font-weight="600" fill="#151515">Stakeholders</text>
  <foreignObject x="0" y="0" width="180" height="48">
    <div xmlns="http://www.w3.org/1999/xhtml" style="display:flex;align-items:center;gap:8px;padding:12px;height:100%;box-sizing:border-box;background:#fff;border-radius:4px">
      <i class="fa-solid fa-users" style="font-size:14px"></i>
      <span style="font-weight:600;font-size:11px;font-family:sans-serif;color:#151515">Stakeholders</span>
    </div>
  </foreignObject>
</g>
</g>
<g transform="translate(408, 40)">
<g>
  <rect x="0" y="0" width="180" height="48" rx="4" fill="#ffffff" stroke="#d2d2d2" stroke-width="1"/>
  <text x="12" y="28" font-family="sans-serif" font-size="11" font-weight="600" fill="#151515">Stakeholders</text>
  <foreignObject x="0" y="0" width="180" height="48">
    <div xmlns="http://www.w3.org/1999/xhtml" style="display:flex;align-items:center;gap:8px;padding:12px;height:100%;box-sizing:border-box;background:#fff;border-radius:4px">
      <i class="fa-solid fa-users" style="font-size:14px"></i>
      <span style="font-weight:600;font-size:11px;font-family:sans-serif;color:#151515">Stakeholders</span>
    </div>
  </foreignObject>
</g>
</g>
<text x="0" y="136" font-family="sans-serif" font-size="14" font-weight="700" fill="#151515">Solution</text>
<text x="0" y="152" font-family="sans-serif" font-size="11" font-style="italic" fill="#6a6e73">Addresses what the project is trying to achieve and produce -- encompassing goa…</text>
<g transform="translate(0, 160)">
<g>
  <rect x="0" y="0" width="180" height="48" rx="4" fill="#ffffff" stroke="#d2d2d2" stroke-width="1"/>
  <text x="12" y="28" font-family="sans-serif" font-size="11" font-weight="600" fill="#151515">Objectives</text>
  <foreignObject x="0" y="0" width="180" height="48">
    <div xmlns="http://www.w3.org/1999/xhtml" style="display:flex;align-items:center;gap:8px;padding:12px;height:100%;box-sizing:border-box;background:#fff;border-radius:4px">
      <i class="fa-solid fa-bullseye" style="font-size:14px"></i>
      <span style="font-weight:600;font-size:11px;font-family:sans-serif;color:#151515">Objectives</span>
    </div>
  </foreignObject>
</g>
</g>
<g transform="translate(204, 160)">
<g>
  <rect x="0" y="0" width="180" height="48" rx="4" fill="#ffffff" stroke="#d2d2d2" stroke-width="1"/>
  <text x="12" y="28" font-family="sans-serif" font-size="11" font-weight="600" fill="#151515">Deliverable</text>
</g>
</g>
<g transform="translate(408, 160)">
<g>
  <rect x="0" y="0" width="180" height="48" rx="4" fill="#ffffff" stroke="#d2d2d2" stroke-width="1"/>
  <text x="12" y="28" font-family="sans-serif" font-size="11" font-weight="600" fill="#151515">Deliverable</text>
</g>
</g>
<g transform="translate(612, 160)">
<g>
  <rect x="0" y="0" width="180" height="48" rx="4" fill="#ffffff" stroke="#d2d2d2" stroke-width="1"/>
  <text x="12" y="28" font-family="sans-serif" font-size="11" font-weight="600" fill="#151515">Deliverable</text>
</g>
</g>
<text x="0" y="256" font-family="sans-serif" font-size="14" font-weight="700" fill="#151515">Endeavor</text>
<text x="0" y="272" font-family="sans-serif" font-size="11" font-style="italic" fill="#6a6e73">Addresses how the project is organized and executed -- encompassing team format…</text>
<g transform="translate(0, 280)">
<g>
  <rect x="0" y="0" width="180" height="48" rx="4" fill="#ffffff" stroke="#d2d2d2" stroke-width="1"/>
  <text x="12" y="28" font-family="sans-serif" font-size="11" font-weight="600" fill="#151515">Work</text>
</g>
</g>
<g transform="translate(204, 280)">
<g>
  <rect x="0" y="0" width="180" height="48" rx="4" fill="#ffffff" stroke="#d2d2d2" stroke-width="1"/>
  <text x="12" y="28" font-family="sans-serif" font-size="11" font-weight="600" fill="#151515">Team</text>
</g>
</g>
<g transform="translate(408, 280)">
<g>
  <rect x="0" y="0" width="180" height="48" rx="4" fill="#ffffff" stroke="#d2d2d2" stroke-width="1"/>
  <text x="12" y="28" font-family="sans-serif" font-size="11" font-weight="600" fill="#151515">Way Of Working</text>
</g>
</g>
<g transform="translate(612, 280)">
<g>
  <rect x="0" y="0" width="180" height="48" rx="4" fill="#ffffff" stroke="#d2d2d2" stroke-width="1"/>
  <text x="12" y="28" font-family="sans-serif" font-size="11" font-weight="600" fill="#151515">Work</text>
</g>
</g>
<g transform="translate(816, 280)">
<g>
  <rect x="0" y="0" width="180" height="48" rx="4" fill="#ffffff" stroke="#d2d2d2" stroke-width="1"/>
  <text x="12" y="28" font-family="sans-serif" font-size="11" font-weight="600" fill="#151515">Backlog</text>
</g>
</g>
<g transform="translate(0, 352)">
<g>
  <rect x="0" y="0" width="180" height="48" rx="4" fill="#ffffff" stroke="#d2d2d2" stroke-width="1"/>
  <text x="12" y="28" font-family="sans-serif" font-size="11" font-weight="600" fill="#151515">Team</text>
</g>
</g>
<g transform="translate(204, 352)">
<g>
  <rect x="0" y="0" width="180" height="48" rx="4" fill="#ffffff" stroke="#d2d2d2" stroke-width="1"/>
  <text x="12" y="28" font-family="sans-serif" font-size="11" font-weight="600" fill="#151515">Way Of Working</text>
</g>
</g>
<g transform="translate(408, 352)">
<g>
  <rect x="0" y="0" width="180" height="48" rx="4" fill="#ffffff" stroke="#d2d2d2" stroke-width="1"/>
  <text x="12" y="28" font-family="sans-serif" font-size="11" font-weight="600" fill="#151515">Team Agreement</text>
</g>
</g>
<g transform="translate(612, 352)">
<g>
  <rect x="0" y="0" width="180" height="48" rx="4" fill="#ffffff" stroke="#d2d2d2" stroke-width="1"/>
  <text x="12" y="28" font-family="sans-serif" font-size="11" font-weight="600" fill="#151515">Work</text>
</g>
</g>
<g transform="translate(816, 352)">
<g>
  <rect x="0" y="0" width="180" height="48" rx="4" fill="#ffffff" stroke="#d2d2d2" stroke-width="1"/>
  <text x="12" y="28" font-family="sans-serif" font-size="11" font-weight="600" fill="#151515">Sprint</text>
</g>
</g>
<g transform="translate(0, 424)">
<g>
  <rect x="0" y="0" width="180" height="48" rx="4" fill="#ffffff" stroke="#d2d2d2" stroke-width="1"/>
  <text x="12" y="28" font-family="sans-serif" font-size="11" font-weight="600" fill="#151515">Backlog</text>
</g>
</g>
<g transform="translate(204, 424)">
<g>
  <rect x="0" y="0" width="180" height="48" rx="4" fill="#ffffff" stroke="#d2d2d2" stroke-width="1"/>
  <text x="12" y="28" font-family="sans-serif" font-size="11" font-weight="600" fill="#151515">Way Of Working</text>
</g>
</g>
<g transform="translate(408, 424)">
<g>
  <rect x="0" y="0" width="180" height="48" rx="4" fill="#ffffff" stroke="#d2d2d2" stroke-width="1"/>
  <text x="12" y="28" font-family="sans-serif" font-size="11" font-weight="600" fill="#151515">Team</text>
</g>
</g>
<g transform="translate(612, 424)">
<g>
  <rect x="0" y="0" width="180" height="48" rx="4" fill="#ffffff" stroke="#d2d2d2" stroke-width="1"/>
  <text x="12" y="28" font-family="sans-serif" font-size="11" font-weight="600" fill="#151515">Definition of Done</text>
</g>
</g>
<text x="0" y="520" font-family="sans-serif" font-size="14" font-weight="700" fill="#151515">Implicit focus</text>
<g transform="translate(0, 544)">
<g>
  <rect x="0" y="0" width="180" height="48" rx="4" fill="#ffffff" stroke="#d2d2d2" stroke-width="1"/>
  <text x="12" y="28" font-family="sans-serif" font-size="11" font-weight="600" fill="#151515">Team Agreement</text>
</g>
</g>
</svg>